<svg width="165" height="71" viewBox="0 0 165 71" fill="none" xmlns="http://www.w3.org/2000/svg"><path d="M29.291 5.36c-.312 0-.642 0-.952.037-3.598.3-6.904 1.83-9.26 4.614-2.562 3.03-3.181 6.224-3.151 10.081l-6.856-.01c-.306 0-.623-.008-.945-.017-.894-.025-1.823-.05-2.661.103a2.38 2.38 0 0 0-1.302.708c-.622.648-.637 1.466-.597 2.304.064 1.321.178 2.645.291 3.966.062.72.123 1.438.177 2.156L5.17 44.002l.554 7.1c.028.35.05.704.071 1.06.079 1.27.158 2.56.493 3.775a11.46 11.46 0 0 0 3.315 5.375 11.393 11.393 0 0 0 4.88 2.615c1.536.37 3.321.329 4.998.29.5-.012.99-.024 1.46-.024l9.23-.003 8.059.003c.44 0 .893.011 1.351.022 1.49.036 3.042.072 4.433-.252 1.957-.455 3.938-1.53 5.366-2.946 1.33-1.32 2.391-3.08 2.855-4.9.356-1.392.445-2.918.531-4.4.028-.477.056-.95.092-1.412l.756-9.737.944-11.955c.045-.59.104-1.188.163-1.786.13-1.296.26-2.602.256-3.883-.001-.788-.168-1.523-.733-2.109-.388-.403-1.024-.6-1.561-.688-.806-.13-1.69-.107-2.544-.085a36.77 36.77 0 0 1-.931.017c-2.156-.005-4.313.003-6.469.022l-.092.001c.05-4.13-.87-7.676-3.84-10.698a13.238 13.238 0 0 0-9.47-4.045h-.045zm13.067 23.565.116.007a.86.86 0 0 0 .013.032l.014.033.005.01c.02.05.025.058.024.136-.038 5.066-1.394 11.588-4.99 15.298-3.33 3.437-8.5 5.123-13.215 5.216 2.197-4.13 5.726-8.048 9.366-10.957.564-.45 1.153-.857 1.743-1.264.38-.262.76-.524 1.133-.797.362-.267.85-.628.9-1.112.048-.447-.19-.793-.47-1.112-.39-.227-.677-.322-1.124-.19-.635.186-1.274.655-1.851 1.08-.152.111-.3.22-.444.32A38.772 38.772 0 0 0 22.218 48.21c-.094-4.053.828-7.448 3.313-10.707 3.73-4.891 10.869-7.766 16.827-8.578zM6.123 22.62l46.31-.002c-.165 1.56-.272 3.133-.378 4.705-.06.875-.118 1.75-.187 2.622L50.62 45.571l-.466 5.76c-.02.25-.04.5-.058.752-.075.993-.15 1.996-.342 2.969-.197.999-.58 1.866-1.097 2.737-.2.303-.416.595-.649.873-1.342 1.604-3.546 2.8-5.64 2.958-1.139.086-2.312.064-3.473.043-.503-.008-1.004-.018-1.5-.018l-9.607-.003-7.646.003c-.368 0-.744.007-1.122.015-1.16.024-2.347.049-3.46-.143a8.26 8.26 0 0 1-3.955-1.864 8.636 8.636 0 0 1-2.774-4.366c-.312-1.13-.39-2.333-.466-3.515-.02-.298-.039-.594-.062-.887l-.454-5.858-1.725-22.407zm37.262 3.59-.034.004c-7.029.813-15.032 3.705-19.576 9.399-2.92 3.66-4.516 8.42-3.989 13.108.116 1.03.35 2.014.685 2.993l-.137.346c-.577 1.45-1.918 4.82-1.451 5.816.134.288.41.481.707.576.122.039.246.06.373.076.394-.065.758-.146.995-.499.255-.38.515-1.29.738-2.068.107-.371.204-.712.289-.952.288-.82.616-1.627.944-2.433l.003-.01.115-.283c5.796.017 11.988-1.797 16.181-5.935 4.689-4.629 5.87-12.092 5.88-18.407 0-.499-.034-1.09-.398-1.47-.224-.234-.561-.305-.874-.298a5.36 5.36 0 0 0-.453.035zM28.728 7.893a9.82 9.82 0 0 1 .674-.025c2.753.02 5.51 1.25 7.445 3.191 2.635 2.641 3.174 5.445 3.18 9.032l-10.09-.006-11.35.014c-.088-3.082.409-5.898 2.431-8.332 1.943-2.339 4.716-3.608 7.71-3.875z" fill="#030A06"/><path d="m42.473 28.932-.116-.007c-5.958.812-13.096 3.687-16.825 8.578-2.486 3.26-3.408 6.654-3.313 10.706a38.775 38.775 0 0 1 11.356-12.584c.143-.1.292-.209.445-.32.578-.425 1.217-.894 1.852-1.08.447-.132.734-.037 1.125.19.28.319.517.665.47 1.112-.051.484-.54.845-.901 1.11a47.56 47.56 0 0 1-1.133.798c-.59.407-1.179.813-1.742 1.263-3.64 2.908-7.168 6.825-9.364 10.956 4.715-.093 9.885-1.78 13.214-5.215 3.596-3.71 4.952-10.231 4.989-15.297 0-.078-.004-.087-.025-.135a2.164 2.164 0 0 1-.032-.076zm.878-2.718.035-.004c.15-.016.302-.032.453-.035.313-.007.65.063.874.298.364.38.398.972.398 1.47-.01 6.315-1.19 13.778-5.88 18.406-4.194 4.137-10.385 5.951-16.182 5.934l-.115.283-.004.01a54.788 54.788 0 0 0-.945 2.433c-.085.24-.182.58-.288.951-.224.78-.484 1.69-.739 2.07-.237.352-.6.433-.995.498a2.018 2.018 0 0 1-.374-.076c-.299-.095-.573-.288-.708-.576-.467-.997.874-4.367 1.451-5.817.053-.134.1-.25.137-.347a13.94 13.94 0 0 1-.685-2.993c-.527-4.687 1.07-9.447 3.99-13.107 4.543-5.694 12.546-8.586 19.576-9.4z" fill="#030A06"/><path d="m43.385 26.21-.034.004c-7.029.813-15.032 3.705-19.575 9.399-2.92 3.66-4.517 8.42-3.99 13.108.116 1.03.35 2.014.685 2.993l-.137.346c-.577 1.449-1.918 4.82-1.451 5.816.135.288.41.481.707.576.122.039.246.06.373.076.394-.065.758-.146.995-.499.255-.38.515-1.29.738-2.068.107-.37.204-.712.289-.952.289-.82.617-1.627.944-2.433l.003-.01.115-.283c5.796.017 11.988-1.797 16.181-5.935 4.69-4.629 5.87-12.092 5.88-18.407 0-.499-.034-1.09-.398-1.47-.224-.235-.561-.305-.874-.298-.151.003-.302.02-.453.035zm-1.028 2.715.116.007.013.032.019.044c.02.048.025.057.024.135-.038 5.066-1.394 11.588-4.99 15.298-3.33 3.437-8.5 5.123-13.214 5.216 2.196-4.13 5.725-8.048 9.365-10.957.564-.45 1.153-.857 1.743-1.264.38-.262.76-.524 1.133-.797.362-.267.85-.628.9-1.112.048-.447-.19-.793-.469-1.112-.391-.227-.678-.322-1.125-.19-.635.186-1.274.655-1.851 1.08-.152.111-.3.22-.444.32A38.775 38.775 0 0 0 22.22 48.21c-.096-4.053.826-7.448 3.312-10.707 3.729-4.891 10.867-7.766 16.825-8.578z" fill="#030A06"/><path d="M133.9 43.377a9.022 9.022 0 0 0-9.333-8.697 9.02 9.02 0 0 0-8.7 9.333 9.022 9.022 0 1 0 18.033-.636zm-9.02-5.99c1.453.058 2.63.407 3.737 1.388 1.32 1.168 2.056 2.855 2.152 4.602.096 1.75-.454 3.523-1.645 4.825-1.088 1.191-2.445 1.724-4.035 1.804-1.45-.015-2.648-.241-3.793-1.194-1.337-1.111-2.093-2.758-2.235-4.476-.147-1.787.32-3.634 1.506-5.004 1.177-1.359 2.566-1.826 4.312-1.946z" fill="#030A06"/><path d="M108.826 42.63a9.017 9.017 0 1 0-17.904 2.146 9.017 9.017 0 0 0 17.904-2.145zm-9.753-5.17c1.444-.118 2.752.034 3.972.873 1.37.942 2.23 2.397 2.516 4.022.324 1.845.02 3.819-1.09 5.356-.972 1.348-2.186 2.016-3.804 2.274-1.478.075-2.784-.015-4.028-.895a6.1 6.1 0 0 1-2.51-4.015c-.301-1.788.06-3.846 1.128-5.333.938-1.307 2.248-2.032 3.817-2.282z" fill="#030A06"/><path d="M152.813 34.669a1.52 1.52 0 0 0-.133.01c-2.27.267-4.316 1.367-5.743 3.169-1.63 2.057-2.19 4.666-1.867 7.246a8.54 8.54 0 0 0 3.22 5.74c2.128 1.653 4.827 2.073 7.457 1.714 1.52-.208 3.808-.937 4.78-2.203.275-.356.412-.79.35-1.239-.045-.315-.184-.616-.443-.81-.298-.222-.696-.25-1.05-.18-.492.096-.933.4-1.35.688-.09.061-.177.122-.263.179-1.836.954-3.873 1.403-5.893.748a5.633 5.633 0 0 1-3.293-2.863c-.348-.695-.522-1.432-.676-2.188h8.667c.36 0 .748.012 1.146.025 1.03.033 2.13.068 3.036-.094a1.36 1.36 0 0 0 .693-.367c.425-.415.5-1.003.488-1.57-.048-2.172-1.068-4.314-2.648-5.783-1.824-1.697-4.024-2.335-6.477-2.224zm.267 2.712a5.386 5.386 0 0 1 3.727.944c1.296.921 1.977 2.23 2.25 3.768-1.1.013-2.2.01-3.3.007-.55 0-1.1-.002-1.648-.001l-6.097.007c.28-.938.603-1.79 1.202-2.576.967-1.264 2.305-1.943 3.865-2.148z" fill="#030A06"/><path d="M104.54 28.222c3.252-.077 6.523-.006 9.78-.011 1.853-.002 4.22-.153 6.02.033.29.03.522.112.742.304.313.274.522.687.533 1.105.01.378-.222.812-.495 1.065-.208.193-.456.27-.73.315-.75.12-1.577.05-2.338.049l-4.04-.006v14.99c.005 1.263.165 4.019-.025 5.093-.06.337-.182.674-.415.932-.25.277-.594.417-.964.425-.39.009-.767-.076-1.047-.359-.328-.33-.45-.816-.49-1.267-.075-.833-.006-1.714.003-2.55.015-1.236.003-2.474.003-3.71l.01-13.559c-1.344.008-5.994.222-6.946-.21a1.233 1.233 0 0 1-.693-.763c-.134-.385-.073-.796.122-1.149.226-.413.53-.59.97-.726z" fill="#030A06"/><path d="M83.258 34.68c1.209-.068 2.39.01 3.563.323 1.24.332 3.135 1.063 3.775 2.239.176.323.268.71.144 1.069-.128.366-.475.645-.824.788-1.02.418-2.295-.986-3.254-1.347-1.559-.587-3.434-.555-4.95.153-1.394.65-2.395 1.883-2.914 3.314-.602 1.66-.653 3.827.111 5.445.708 1.5 2.012 2.55 3.56 3.095 1.77.626 3.614.293 5.268-.5.512-.278.978-.647 1.562-.768.301-.063.6-.03.857.147.317.22.573.654.615 1.038.04.36-.1.69-.324.966-.968 1.2-3.122 1.804-4.588 1.983-2.544.312-5.194-.198-7.23-1.821a8.884 8.884 0 0 1-3.37-6.128 9.212 9.212 0 0 1 1.966-6.71c1.532-1.885 3.624-3.026 6.032-3.284z" fill="#030A06"/><path d="m137.6 30.128.15-.007c.452-.013.906.108 1.224.44.76.795.46 3.472.45 4.568 1.036.007 3.555-.315 4.332.375.28.25.395.597.396.967 0 .36-.092.703-.358.956-.726.687-3.345.416-4.372.41.01 2.202-.288 8.988.39 10.659 1.098 2.7 3.475.325 4.83.964.292.136.53.424.637.725.152.428.016.81-.16 1.203l-.09.1c-.82.852-2.36 1.058-3.49 1.074-1.31.019-2.55-.204-3.52-1.174-.7-.702-1.135-1.665-1.348-2.622-.33-1.48-.194-3.117-.193-4.626l.003-6.302c-.795 0-1.59-.006-2.387-.019a2.593 2.593 0 0 1-.374-.271c-.315-.284-.458-.707-.47-1.123-.01-.348.098-.692.358-.933.643-.595 2.056-.382 2.873-.367-.002-1.146-.254-3.202.18-4.21.192-.448.506-.61.937-.79z" fill="#030A06"/><path fill-rule="evenodd" clip-rule="evenodd" d="M74.493 29.7c-1.37-.136-8.08-.088-10.406-.054-.428.007-.825.036-1.173.062-.297.021-.559.04-.775.04 0 0-.927.218-1.227.635-.196.274-.263.62-.31.947-.249 1.733-.394 3.5-.54 5.263a165.92 165.92 0 0 1-.243 2.771l-.883 8.908a39.54 39.54 0 0 1-.11.932c-.15 1.194-.356 2.846-.222 3.504.074.365.267.666.59.856.317.188.678.294 1.04.356h.003c.748-.002 1.877.01 3.138.023 2.615.027 9.263.06 10.809-.007.308-.013.635-.04.925-.15.39-.147.711-.43.865-.822a1.56 1.56 0 0 0-.055-1.22c-.177-.386-.416-.59-.818-.72H61.74c.222-1.967.422-3.937.597-5.909l.158-1.603.016-.159.406.006c1.36.02 7.985.067 8.83-.058.309-.047.598-.124.825-.353.294-.297.416-.706.392-1.116-.02-.348-.175-.728-.44-.962a1.204 1.204 0 0 0-.63-.29c-.788-.115-6.677-.084-8.164-.065-.4.006-.73.01-.944.01l.677-7.991h7.212c.368 0 .75.012 1.14.025.94.03 1.916.062 2.791-.074.312-.048.578-.154.804-.38.277-.278.428-.698.407-1.088a1.425 1.425 0 0 0-1.321-1.319z" fill="#030A06"/></svg>