<svg width="280" height="122" viewBox="0 0 280 122" fill="none" xmlns="http://www.w3.org/2000/svg"><path d="M47.888 9.611c-.536.002-1.102.002-1.633.066-6.166.514-11.833 3.134-15.869 7.906-4.391 5.193-5.453 10.665-5.402 17.276l-11.748-.018c-.527 0-1.07-.015-1.622-.03-1.533-.043-3.125-.087-4.561.176a4.08 4.08 0 0 0-2.23 1.214C3.755 37.31 3.73 38.712 3.8 40.148c.109 2.265.303 4.533.498 6.798.105 1.232.21 2.464.303 3.694l1.95 25.197.95 12.167c.046.6.084 1.207.121 1.816.135 2.178.271 4.387.846 6.47a19.64 19.64 0 0 0 5.68 9.213 19.523 19.523 0 0 0 8.363 4.48c2.632.637 5.692.565 8.566.497.855-.02 1.694-.04 2.5-.04l15.817-.005 13.813.006c.755 0 1.532.02 2.318.038 2.551.06 5.21.124 7.595-.432 3.353-.78 6.747-2.622 9.196-5.05 2.279-2.26 4.1-5.278 4.895-8.396.61-2.386.762-5.002.91-7.54.048-.819.095-1.63.157-2.42l1.297-16.688 1.616-20.49c.078-1.012.18-2.035.281-3.06.22-2.221.442-4.46.437-6.655-.002-1.35-.288-2.61-1.256-3.614-.665-.69-1.753-1.028-2.674-1.178-1.381-.226-2.896-.185-4.36-.147-.542.015-1.077.03-1.596.03-3.695-.008-7.39.005-11.086.038l-.159.003c.087-7.082-1.49-13.157-6.58-18.336a22.687 22.687 0 0 0-16.23-6.933l-.077.001zM70.281 50l.2.011a2.38 2.38 0 0 0 .045.11l.009.02c.036.082.043.097.04.23-.062 8.682-2.386 19.86-8.548 26.219-5.706 5.887-14.567 8.776-22.648 8.936 3.764-7.079 9.812-13.792 16.05-18.778.966-.77 1.976-1.467 2.986-2.164.651-.449 1.302-.898 1.941-1.367.621-.455 1.457-1.073 1.545-1.904.08-.765-.326-1.359-.805-1.905-.671-.389-1.162-.551-1.929-.326-1.087.32-2.183 1.124-3.172 1.85-.262.192-.517.38-.762.55a66.45 66.45 0 0 0-19.465 21.564c-.162-6.944 1.42-12.761 5.678-18.347 6.391-8.384 18.625-13.31 28.836-14.702zM8.183 39.19l79.366-.002c-.282 2.673-.464 5.37-.646 8.064-.102 1.5-.203 3-.322 4.494l-2.137 26.78-.8 9.868c-.035.428-.067.859-.1 1.29-.128 1.703-.257 3.42-.586 5.088-.337 1.71-.992 3.197-1.879 4.69a16.63 16.63 0 0 1-1.112 1.496c-2.3 2.75-6.077 4.797-9.665 5.068-1.952.148-3.962.11-5.953.074-.862-.016-1.72-.03-2.57-.032l-16.465-.005-13.103.006c-.633 0-1.276.013-1.924.026-1.987.04-4.022.083-5.932-.246a14.145 14.145 0 0 1-6.776-3.195 14.8 14.8 0 0 1-4.755-7.482c-.536-1.937-.67-4-.8-6.026a116.96 116.96 0 0 0-.105-1.517l-.78-10.04-2.956-38.4zm63.86 6.155-.058.006c-12.048 1.395-25.763 6.35-33.55 16.11-5.005 6.271-7.74 14.43-6.837 22.463.198 1.764.598 3.45 1.174 5.128-.064.168-.144.367-.234.595-.989 2.485-3.287 8.26-2.488 9.97.231.493.702.824 1.213.986.211.067.423.105.642.13.675-.11 1.3-.25 1.705-.853.437-.65.883-2.21 1.265-3.544.182-.635.35-1.22.494-1.63.495-1.407 1.057-2.79 1.619-4.17l.006-.017c.067-.162.133-.323.198-.485 9.935.03 20.545-3.08 27.732-10.17 8.038-7.932 10.062-20.722 10.078-31.546.001-.854-.057-1.867-.682-2.52-.383-.4-.961-.522-1.498-.51a9.25 9.25 0 0 0-.775.06zm-25.12-31.393c.385-.024.771-.045 1.156-.042 4.72.033 9.444 2.143 12.76 5.469 4.515 4.527 5.439 9.333 5.448 15.479l-17.289-.01-19.455.024c-.149-5.284.702-10.11 4.168-14.28 3.33-4.008 8.082-6.184 13.212-6.642z" fill="#030A06"/><path d="m70.48 50.01-.2-.012c-10.21 1.39-22.444 6.318-28.835 14.7-4.26 5.586-5.84 11.404-5.678 18.348a66.45 66.45 0 0 1 19.465-21.564c.245-.17.5-.358.762-.55.989-.726 2.085-1.531 3.173-1.85.766-.225 1.257-.063 1.928.326.479.546.885 1.14.805 1.905-.088.83-.924 1.449-1.545 1.904-.64.47-1.29.918-1.94 1.367-1.011.697-2.021 1.393-2.986 2.163-6.24 4.987-12.288 11.7-16.052 18.78 8.08-.16 16.942-3.05 22.648-8.938 6.161-6.36 8.485-17.538 8.55-26.22 0-.133-.006-.148-.042-.23-.01-.02-.02-.045-.032-.075a3.406 3.406 0 0 1-.022-.056zm1.504-4.659.059-.005a9.25 9.25 0 0 1 .775-.06c.537-.013 1.115.108 1.498.51.625.652.683 1.665.682 2.518-.016 10.824-2.04 23.614-10.078 31.546-7.187 7.09-17.797 10.2-27.732 10.17-.065.162-.13.324-.197.486l-.005.016c-.562 1.38-1.124 2.764-1.619 4.17a32.5 32.5 0 0 0-.494 1.63c-.382 1.335-.829 2.895-1.265 3.545-.406.603-1.03.742-1.705.854a3.497 3.497 0 0 1-.641-.13c-.51-.16-.98-.493-1.212-.986-.8-1.708 1.5-7.484 2.488-9.97.09-.227.17-.426.235-.593a23.885 23.885 0 0 1-1.173-5.127c-.903-8.034 1.832-16.192 6.837-22.464 7.787-9.76 21.502-14.715 33.55-16.109z" fill="#030A06"/><path d="m72.043 45.345-.059.006c-12.047 1.395-25.763 6.35-33.55 16.11-5.005 6.271-7.74 14.43-6.836 22.463a23.89 23.89 0 0 0 1.173 5.128c-.064.167-.143.367-.234.595-.988 2.485-3.287 8.26-2.487 9.969.23.493.7.825 1.211.987.212.067.424.105.643.13.675-.11 1.298-.25 1.705-.853.436-.65.882-2.21 1.265-3.543.182-.636.35-1.221.494-1.632.495-1.406 1.057-2.789 1.618-4.17l.007-.016.197-.485c9.933.03 20.544-3.08 27.73-10.17C72.959 71.926 74.984 59.136 75 48.312c0-.853-.059-1.866-.683-2.518-.384-.402-.962-.523-1.498-.51-.26.005-.519.032-.777.06zm-1.762 4.653.2.011.022.055.032.074c.037.082.043.097.041.23-.063 8.682-2.387 19.86-8.549 26.219-5.706 5.887-14.567 8.776-22.647 8.936 3.762-7.079 9.81-13.792 16.05-18.779.964-.77 1.974-1.466 2.985-2.163.65-.45 1.301-.898 1.94-1.367.622-.455 1.457-1.073 1.545-1.904.08-.765-.326-1.359-.805-1.905-.67-.39-1.162-.551-1.928-.326-1.088.319-2.184 1.124-3.173 1.85-.262.192-.516.38-.761.55a66.45 66.45 0 0 0-19.465 21.564c-.163-6.944 1.418-12.762 5.677-18.348 6.392-8.382 18.625-13.31 28.836-14.7z" fill="#030A06"/><path d="M227.168 74.766c-.302-8.534-7.463-15.207-15.995-14.907-8.535.298-15.21 7.461-14.91 15.995.302 8.535 7.466 15.21 16 14.908 8.533-.303 15.206-7.465 14.905-15.997zM211.71 64.498c2.49.101 4.507.7 6.405 2.38 2.26 2.002 3.522 4.893 3.687 7.888.166 2.997-.777 6.036-2.818 8.269-1.864 2.04-4.19 2.954-6.915 3.09-2.488-.026-4.54-.413-6.5-2.045-2.292-1.905-3.587-4.727-3.83-7.672-.254-3.061.548-6.227 2.58-8.575 2.017-2.329 4.398-3.13 7.39-3.335z" fill="#030A06"/><path d="M184.197 73.485c-1.017-8.486-8.728-14.534-17.21-13.5-8.462 1.03-14.49 8.715-13.477 17.178 1.015 8.463 8.69 14.506 17.154 13.508 8.487-1 14.55-8.7 13.533-17.185zm-16.716-8.862c2.476-.202 4.72.059 6.81 1.497 2.346 1.614 3.822 4.107 4.31 6.892.554 3.163.034 6.545-1.87 9.18-1.665 2.308-3.746 3.453-6.52 3.895-2.532.13-4.77-.025-6.902-1.534-2.3-1.62-3.85-4.1-4.3-6.879-.517-3.064.102-6.59 1.93-9.14 1.61-2.24 3.854-3.482 6.543-3.91z" fill="#030A06"/><path d="M259.582 59.841a2.544 2.544 0 0 0-.228.019c-3.892.458-7.397 2.342-9.844 5.431-2.792 3.528-3.75 8-3.2 12.421a14.642 14.642 0 0 0 5.52 9.838c3.647 2.834 8.272 3.554 12.78 2.938 2.607-.357 6.526-1.606 8.193-3.776.47-.61.705-1.354.597-2.123-.076-.54-.313-1.056-.758-1.388-.51-.38-1.192-.429-1.8-.31-.842.164-1.598.686-2.315 1.18-.15.105-.3.208-.45.306-3.146 1.636-6.637 2.405-10.1 1.283a9.653 9.653 0 0 1-5.643-4.909c-.598-1.189-.895-2.453-1.16-3.75h14.856c.618.002 1.28.023 1.963.045 1.76.056 3.647.117 5.2-.161.444-.08.867-.317 1.19-.63.73-.712.86-1.72.837-2.69-.083-3.723-1.83-7.394-4.538-9.911-3.126-2.908-6.896-4.001-11.1-3.812zm.458 4.65a9.23 9.23 0 0 1 6.386 1.62c2.22 1.578 3.388 3.819 3.855 6.456-1.882.023-3.767.018-5.652.013-.942-.004-1.885-.006-2.826-.005l-10.447.013c.478-1.607 1.033-3.067 2.06-4.414 1.657-2.169 3.95-3.331 6.625-3.683z" fill="#030A06"/><path d="M176.848 48.793c5.576-.132 11.182-.01 16.76-.02 3.18-.005 7.238-.262 10.323.055.497.052.893.192 1.27.522.537.47.895 1.177.914 1.894.016.647-.38 1.39-.848 1.825-.357.33-.783.461-1.253.538-1.284.207-2.702.085-4.005.084l-6.922-.012-.003 25.69c.01 2.165.284 6.887-.042 8.73-.102.577-.31 1.154-.71 1.597-.428.476-1.018.715-1.653.73-.665.014-1.314-.132-1.794-.616-.564-.564-.772-1.397-.84-2.17-.13-1.426-.012-2.935.004-4.368.025-2.12.006-4.24.004-6.36l.018-23.236c-2.303.01-10.272.377-11.903-.363-.597-.27-.97-.687-1.187-1.307-.23-.66-.126-1.363.208-1.969.39-.708.91-1.012 1.662-1.244z" fill="#030A06"/><path d="M140.377 59.86c2.07-.117 4.095.015 6.106.553 2.123.569 5.37 1.822 6.47 3.836.3.554.458 1.218.245 1.831-.218.627-.812 1.106-1.41 1.35-1.747.717-3.934-1.69-5.577-2.308-2.67-1.008-5.883-.952-8.483.261-2.388 1.116-4.105 3.227-4.994 5.68-1.032 2.846-1.12 6.558.19 9.332 1.216 2.57 3.45 4.368 6.102 5.304 3.034 1.072 6.194.5 9.03-.858.878-.476 1.675-1.11 2.676-1.317.52-.106 1.03-.05 1.47.255.543.376.982 1.12 1.054 1.777.068.617-.172 1.184-.554 1.657-1.66 2.055-5.35 3.089-7.863 3.397-4.36.535-8.902-.339-12.392-3.12a15.23 15.23 0 0 1-5.776-10.503 15.79 15.79 0 0 1 3.37-11.501c2.625-3.23 6.21-5.185 10.337-5.626z" fill="#030A06"/><path d="m233.51 52.06.258-.01c.773-.025 1.55.182 2.096.752 1.304 1.362.786 5.95.77 7.83 1.775.01 6.094-.542 7.425.641.48.43.676 1.024.677 1.658.003.616-.156 1.204-.613 1.638-1.243 1.178-5.732.714-7.492.703.016 3.775-.494 15.406.67 18.268 1.88 4.63 5.954.558 8.278 1.652.497.235.905.73 1.09 1.245.26.733.028 1.39-.274 2.062-.05.058-.103.114-.155.17-1.403 1.462-4.04 1.814-5.978 1.841-2.248.033-4.373-.349-6.033-2.012-1.2-1.202-1.947-2.852-2.312-4.493-.564-2.535-.33-5.342-.33-7.928l.007-10.8c-1.363 0-2.728-.01-4.09-.032a4.477 4.477 0 0 1-.643-.464c-.54-.486-.784-1.21-.803-1.923-.017-.597.165-1.186.61-1.599 1.102-1.02 3.525-.654 4.925-.63-.004-1.964-.435-5.486.307-7.215.33-.767.868-1.046 1.607-1.352z" fill="#030A06"/><path fill-rule="evenodd" clip-rule="evenodd" d="M125.356 51.324c-2.35-.231-13.846-.15-17.834-.09-.734.01-1.414.06-2.01.104-.51.037-.958.07-1.328.071 0 0-1.587.372-2.102 1.087-.336.468-.45 1.062-.53 1.621-.427 2.97-.677 6-.925 9.02a288.17 288.17 0 0 1-.418 4.75l-1.513 15.267c-.04.408-.11.965-.19 1.597-.256 2.045-.61 4.878-.381 6.005.127.625.458 1.14 1.01 1.466.546.322 1.163.505 1.784.61h.006c1.282-.003 3.216.017 5.378.04 4.48.046 15.874.103 18.523-.011.53-.024 1.09-.068 1.587-.257.668-.253 1.218-.737 1.482-1.41.267-.678.208-1.437-.094-2.092-.304-.66-.714-1.011-1.402-1.232h-22.9a424.36 424.36 0 0 0 1.024-10.126l.27-2.747.026-.273.695.01c2.332.036 13.685.117 15.13-.098.532-.08 1.028-.213 1.417-.604.502-.507.71-1.208.67-1.911-.036-.597-.3-1.247-.754-1.649a2.06 2.06 0 0 0-1.08-.495c-1.35-.197-11.444-.143-13.992-.11-.683.008-1.25.015-1.618.016l1.16-13.695h12.36c.63 0 1.286.021 1.952.043 1.613.051 3.285.105 4.785-.128.533-.081.99-.264 1.378-.653.474-.475.733-1.195.696-1.863-.038-.682-.405-1.33-.938-1.75-.406-.318-.817-.461-1.326-.51z" fill="#030A06"/></svg>