<svg width="166" height="71" viewBox="0 0 166 71" fill="none" xmlns="http://www.w3.org/2000/svg"><path d="M29.418 5.531c-.313.002-.643.002-.953.039-3.598.299-6.905 1.827-9.26 4.612-2.562 3.03-3.181 6.223-3.152 10.08l-6.855-.01c-.307 0-.624-.009-.946-.018-.894-.024-1.823-.05-2.661.103a2.38 2.38 0 0 0-1.3.709c-.623.647-.638 1.465-.598 2.303.064 1.32.178 2.644.291 3.966.062.719.123 1.438.177 2.156l1.138 14.701.553 7.1c.029.35.05.704.072 1.06.079 1.27.158 2.56.493 3.775a11.46 11.46 0 0 0 3.315 5.376 11.393 11.393 0 0 0 4.88 2.614c1.536.371 3.321.33 4.998.29.5-.012.989-.023 1.46-.024l9.228-.003 8.06.005c.44 0 .894.01 1.352.021 1.49.036 3.04.073 4.432-.251 1.957-.456 3.938-1.53 5.366-2.947 1.33-1.32 2.392-3.08 2.856-4.9.356-1.391.445-2.918.531-4.4.028-.477.056-.95.092-1.411l.756-9.737.944-11.956c.046-.59.105-1.187.164-1.785.129-1.298.258-2.604.255-3.885-.001-.788-.168-1.523-.733-2.108-.389-.403-1.024-.6-1.561-.688-.807-.132-1.69-.11-2.545-.086-.316.008-.628.016-.931.017-2.156-.004-4.313.004-6.469.023l-.092.002c.05-4.132-.87-7.677-3.84-10.698a13.238 13.238 0 0 0-9.47-4.046l-.045.001zm13.066 23.567.116.006a5.773 5.773 0 0 0 .013.033l.014.032.005.011c.02.047.025.056.024.134-.037 5.066-1.393 11.588-4.989 15.298-3.33 3.436-8.5 5.122-13.215 5.215 2.197-4.13 5.726-8.048 9.366-10.957a30.62 30.62 0 0 1 1.742-1.263c.38-.261.76-.523 1.132-.797.363-.266.85-.626.902-1.11.047-.447-.19-.794-.47-1.113-.392-.227-.678-.321-1.125-.19-.636.186-1.275.656-1.852 1.08-.153.112-.302.22-.445.32A38.774 38.774 0 0 0 22.345 48.38c-.094-4.052.828-7.446 3.313-10.706 3.73-4.89 10.868-7.766 16.826-8.577zM6.25 22.79h46.31c-.165 1.559-.272 3.133-.378 4.704-.06.876-.118 1.751-.188 2.623l-1.246 15.625-.467 5.758c-.02.25-.038.502-.057.754-.075.993-.15 1.995-.342 2.968-.196.998-.578 1.866-1.096 2.736a9.67 9.67 0 0 1-.649.874c-1.342 1.604-3.546 2.799-5.64 2.957-1.139.085-2.312.063-3.473.042-.503-.01-1.004-.018-1.5-.019l-9.607-.003-7.646.004c-.37 0-.745.008-1.123.016-1.16.024-2.347.048-3.46-.144a8.26 8.26 0 0 1-3.955-1.864 8.637 8.637 0 0 1-2.775-4.366c-.312-1.13-.39-2.334-.466-3.516-.019-.297-.038-.592-.06-.885l-.455-5.859L6.25 22.79zm37.262 3.592-.034.003c-7.03.813-15.033 3.705-19.577 9.4-2.92 3.66-4.515 8.42-3.988 13.107.116 1.03.35 2.013.685 2.992l-.137.346c-.577 1.45-1.918 4.82-1.452 5.817.135.288.41.482.708.576.123.04.246.061.374.076.394-.066.758-.147.995-.5.255-.378.515-1.289.738-2.067a19 19 0 0 1 .289-.952c.288-.82.616-1.626.944-2.432l.004-.01.115-.282c5.796.017 11.988-1.798 16.181-5.935 4.69-4.627 5.871-12.09 5.88-18.406.001-.498-.033-1.09-.397-1.47-.225-.234-.562-.305-.875-.298-.151.003-.302.02-.453.036zM28.854 8.064c.225-.014.45-.026.675-.025 2.752.019 5.51 1.25 7.444 3.19 2.635 2.643 3.174 5.447 3.18 9.033l-10.09-.006-11.35.015c-.088-3.083.409-5.899 2.431-8.333 1.943-2.34 4.716-3.608 7.71-3.876z" fill="#030A06"/><path d="m42.6 29.103-.116-.006c-5.958.811-13.096 3.686-16.826 8.577-2.485 3.26-3.407 6.654-3.312 10.706a38.774 38.774 0 0 1 11.357-12.582c.143-.1.292-.21.445-.321.577-.424 1.216-.894 1.85-1.08.448-.131.734-.036 1.126.19.28.32.517.666.47 1.112-.052.484-.54.844-.902 1.11-.373.274-.752.536-1.132.797-.59.407-1.18.813-1.742 1.263-3.64 2.91-7.17 6.827-9.366 10.957 4.715-.093 9.886-1.78 13.215-5.215 3.596-3.71 4.952-10.232 4.989-15.298 0-.078-.003-.087-.024-.135a1.754 1.754 0 0 1-.032-.077zm.878-2.718.034-.003c.15-.016.302-.032.453-.036.313-.007.65.064.874.298.363.38.397.972.396 1.47-.009 6.316-1.19 13.779-5.88 18.407-4.193 4.138-10.385 5.953-16.181 5.936l-.115.283-.004.008c-.328.806-.656 1.613-.944 2.433-.085.24-.182.582-.289.953-.223.778-.483 1.689-.738 2.068-.237.353-.6.434-.995.5a2.016 2.016 0 0 1-.374-.077c-.298-.094-.573-.288-.708-.576-.466-.996.875-4.367 1.452-5.817.053-.132.1-.249.137-.346a13.937 13.937 0 0 1-.685-2.992c-.527-4.688 1.069-9.448 3.99-13.108 4.543-5.694 12.546-8.586 19.576-9.399z" fill="#030A06"/><path d="m43.512 26.382-.034.003c-7.03.813-15.033 3.705-19.576 9.4-2.92 3.66-4.517 8.42-3.99 13.107a13.93 13.93 0 0 0 .685 2.992 72.48 72.48 0 0 1-.137.346c-.577 1.45-1.918 4.82-1.451 5.817.133.288.408.482.706.576.123.039.247.061.374.076.394-.066.758-.147.995-.5.255-.378.515-1.288.738-2.067.107-.37.204-.712.289-.952.289-.82.617-1.626.944-2.432l.004-.01.115-.282c5.797.017 11.988-1.798 16.181-5.935 4.69-4.627 5.871-12.09 5.88-18.406.001-.498-.033-1.09-.397-1.47-.225-.234-.562-.305-.875-.298-.151.003-.302.02-.453.036zm-1.028 2.715.116.006.013.033.019.043c.02.047.025.056.024.134-.037 5.066-1.393 11.588-4.989 15.298-3.33 3.436-8.5 5.122-13.215 5.215 2.197-4.13 5.726-8.048 9.366-10.957.563-.45 1.152-.856 1.742-1.263.38-.261.76-.523 1.133-.797.362-.266.85-.626.9-1.11.048-.447-.19-.794-.47-1.113-.39-.227-.677-.321-1.124-.19-.636.186-1.275.656-1.852 1.08-.153.112-.302.22-.445.32A38.774 38.774 0 0 0 22.346 48.38c-.095-4.052.827-7.446 3.312-10.706 3.73-4.89 10.868-7.766 16.826-8.577z" fill="#030A06"/><path d="M134.027 43.55a9.022 9.022 0 0 0-9.333-8.699 9.02 9.02 0 0 0-8.7 9.335 9.022 9.022 0 1 0 18.033-.636zm-9.02-5.992c1.453.06 2.63.408 3.737 1.39 1.32 1.167 2.056 2.854 2.152 4.601.097 1.748-.453 3.521-1.644 4.824-1.088 1.19-2.445 1.724-4.035 1.804-1.45-.016-2.648-.242-3.793-1.194-1.337-1.112-2.093-2.758-2.235-4.476-.148-1.787.32-3.634 1.506-5.004 1.176-1.359 2.566-1.826 4.312-1.946z" fill="#030A06"/><path d="M108.953 42.802a9.017 9.017 0 1 0-17.904 2.146 9.017 9.017 0 0 0 17.905-2.146zm-9.753-5.17c1.444-.118 2.753.034 3.972.873 1.37.941 2.23 2.396 2.516 4.021.323 1.846.02 3.82-1.09 5.357-.973 1.346-2.187 2.014-3.805 2.272-1.478.076-2.784-.014-4.028-.895a6.1 6.1 0 0 1-2.51-4.013c-.3-1.789.06-3.846 1.128-5.334.938-1.306 2.248-2.031 3.817-2.282z" fill="#030A06"/><path d="M152.94 34.84a1.48 1.48 0 0 0-.133.01c-2.27.269-4.316 1.368-5.743 3.17-1.63 2.058-2.19 4.667-1.867 7.247a8.54 8.54 0 0 0 3.22 5.74c2.128 1.654 4.827 2.074 7.457 1.714 1.52-.207 3.808-.936 4.78-2.202.274-.356.412-.79.35-1.239-.045-.315-.184-.617-.443-.81-.297-.222-.695-.25-1.05-.18-.49.095-.932.4-1.35.688l-.262.178c-1.837.955-3.874 1.403-5.894.749a5.633 5.633 0 0 1-3.293-2.864c-.348-.693-.52-1.43-.675-2.187h8.667c.36 0 .748.013 1.146.026 1.028.031 2.128.067 3.035-.095a1.36 1.36 0 0 0 .693-.368c.426-.415.502-1.003.49-1.57-.05-2.172-1.07-4.314-2.65-5.783-1.823-1.696-4.023-2.334-6.476-2.224zm.267 2.713a5.386 5.386 0 0 1 3.727.945c1.296.92 1.976 2.228 2.25 3.767-1.1.014-2.2.01-3.3.008l-1.648-.003-6.096.008c.28-.938.603-1.79 1.202-2.575.967-1.266 2.305-1.944 3.865-2.15z" fill="#030A06"/><path d="M104.666 28.394c3.253-.077 6.524-.006 9.78-.011 1.854-.003 4.222-.154 6.022.032.29.03.52.112.74.304.314.273.523.686.534 1.104.01.378-.222.811-.495 1.065-.208.192-.456.269-.73.313-.75.121-1.577.05-2.338.05l-4.04-.007-.002 14.99c.006 1.263.166 4.018-.024 5.093-.06.336-.182.673-.415.931-.25.279-.595.419-.965.427-.39.008-.767-.077-1.047-.359-.33-.33-.45-.816-.49-1.267-.076-.831-.007-1.712.002-2.548.015-1.236.003-2.474.003-3.71l.01-13.559c-1.344.007-5.994.22-6.946-.212a1.232 1.232 0 0 1-.693-.761c-.134-.386-.073-.797.122-1.15.227-.414.53-.59.97-.726z" fill="#030A06"/><path d="M83.385 34.851c1.208-.067 2.39.01 3.562.324 1.24.332 3.134 1.063 3.775 2.238.176.324.268.712.144 1.07-.127.365-.474.644-.824.787-1.019.417-2.294-.987-3.253-1.348-1.56-.588-3.435-.556-4.951.152-1.395.65-2.397 1.883-2.915 3.314-.603 1.66-.653 3.827.111 5.445.709 1.5 2.013 2.549 3.56 3.095 1.77.626 3.614.293 5.268-.5.513-.278.978-.648 1.562-.768.302-.062.6-.03.857.148.317.22.573.654.615 1.038.04.36-.1.69-.323.966-.968 1.2-3.122 1.802-4.588 1.982-2.544.312-5.194-.198-7.23-1.821a8.884 8.884 0 0 1-3.37-6.128 9.212 9.212 0 0 1 1.965-6.711c1.533-1.884 3.624-3.025 6.033-3.283z" fill="#030A06"/><path d="m137.727 30.3.15-.006c.452-.014.905.107 1.224.44.762.794.46 3.471.45 4.567 1.036.008 3.556-.314 4.332.376.28.25.396.597.397.967 0 .359-.093.702-.36.955-.725.688-3.344.417-4.37.41.01 2.203-.29 8.99.39 10.66 1.096 2.7 3.474.325 4.83.964.29.136.528.425.636.726.152.428.016.81-.16 1.203-.03.035-.06.067-.09.1-.82.853-2.36 1.058-3.49 1.074-1.31.02-2.55-.203-3.52-1.174-.7-.701-1.134-1.664-1.348-2.621-.33-1.48-.193-3.119-.192-4.627l.004-6.302c-.795 0-1.592-.005-2.387-.018a2.657 2.657 0 0 1-.375-.27c-.314-.284-.457-.706-.468-1.122-.01-.348.097-.692.357-.933.643-.595 2.056-.382 2.873-.367-.002-1.146-.254-3.202.18-4.21.19-.448.506-.61.937-.79z" fill="#030A06"/><path fill-rule="evenodd" clip-rule="evenodd" d="M74.62 29.87c-1.37-.134-8.08-.086-10.406-.052-.428.006-.825.036-1.173.061-.296.021-.558.04-.774.04 0 0-.926.218-1.226.635-.196.274-.264.62-.31.946-.249 1.734-.394 3.503-.54 5.265-.076.927-.152 1.853-.243 2.771l-.883 8.908c-.023.238-.064.563-.11.932-.15 1.194-.357 2.846-.223 3.504.076.365.269.666.591.856.32.187.68.294 1.042.355l.003.001c.748 0 1.877.012 3.138.025 2.615.027 9.263.06 10.809-.007.308-.013.635-.04.925-.15.39-.147.71-.43.865-.823a1.56 1.56 0 0 0-.055-1.22c-.177-.385-.416-.59-.818-.719H61.865c.223-1.967.423-3.937.598-5.91l.158-1.602.016-.159.405.006c1.36.022 7.985.07 8.83-.057.309-.046.598-.124.825-.352.293-.295.415-.704.39-1.114-.02-.348-.174-.728-.439-.963a1.204 1.204 0 0 0-.63-.29c-.79-.114-6.678-.083-8.165-.064-.4.004-.73.009-.944.01l.678-7.993h7.21c.369 0 .752.013 1.14.025.942.03 1.917.062 2.792-.074.311-.048.578-.154.804-.38a1.47 1.47 0 0 0 .407-1.088 1.425 1.425 0 0 0-.546-1.02 1.393 1.393 0 0 0-.774-.3z" fill="#030A06"/></svg>