<svg width="84" height="36" viewBox="0 0 84 36" fill="none" xmlns="http://www.w3.org/2000/svg"><path d="M14.663 2.5c-.16 0-.33 0-.487.02-1.84.153-3.531.934-4.736 2.358-1.31 1.55-1.627 3.183-1.612 5.156l-3.505-.006c-.158 0-.32-.004-.484-.009-.459-.013-.934-.027-1.362.052a1.218 1.218 0 0 0-.666.362c-.318.331-.326.75-.305 1.178.032.676.09 1.353.148 2.029.032.368.063.736.09 1.103l.583 7.519.283 3.63c.015.18.026.36.037.542.04.65.08 1.31.252 1.931a5.827 5.827 0 0 0 4.19 4.086c.786.19 1.699.168 2.556.148.255-.007.506-.012.746-.013l4.72-.001 4.122.002c.225 0 .457.005.691.01.762.019 1.555.038 2.267-.128a5.93 5.93 0 0 0 2.744-1.507c.68-.674 1.223-1.575 1.46-2.505.182-.712.228-1.493.272-2.25.015-.245.029-.487.047-.723l.387-4.98.482-6.113c.024-.302.054-.608.084-.913.066-.664.132-1.332.13-1.988 0-.402-.086-.778-.375-1.078-.198-.206-.523-.307-.798-.351-.412-.068-.864-.056-1.3-.044-.163.003-.322.007-.477.007-1.103-.002-2.206.002-3.308.012h-.048c.026-2.113-.444-3.926-1.963-5.471a6.77 6.77 0 0 0-4.844-2.07h-.023zm6.682 12.051.06.005c0 .004.002.008.004.011v.005a.416.416 0 0 0 .008.018l.002.006c.011.024.013.029.013.069-.02 2.59-.713 5.926-2.552 7.823-1.701 1.757-4.345 2.62-6.756 2.667 1.123-2.112 2.927-4.116 4.79-5.603.287-.23.588-.438.89-.646.194-.134.388-.268.58-.408.184-.136.434-.32.46-.568.024-.228-.097-.406-.24-.569-.2-.117-.347-.165-.576-.098-.324.095-.651.335-.946.552-.079.058-.155.113-.228.164a19.83 19.83 0 0 0-5.808 6.435c-.048-2.072.423-3.808 1.694-5.475 1.907-2.501 5.558-3.971 8.605-4.387zm-18.53-3.224h23.682c-.084.797-.138 1.602-.192 2.406-.03.448-.06.895-.096 1.341l-.64 7.991-.237 2.945c-.011.127-.02.255-.03.384-.039.508-.077 1.02-.175 1.518-.101.51-.297.954-.561 1.4a4.945 4.945 0 0 1-.332.446c-.687.82-1.814 1.431-2.884 1.512-.582.044-1.182.033-1.776.022-.257-.004-.513-.01-.766-.01h-4.914l-3.91.001c-.188 0-.38.004-.574.008-.593.013-1.2.026-1.77-.072a4.223 4.223 0 0 1-2.022-.954A4.416 4.416 0 0 1 4.2 28.032c-.16-.578-.2-1.194-.24-1.798l-.03-.453-.233-2.995-.882-11.459zm19.056 1.837-.017.002c-3.595.416-7.688 1.894-10.011 4.807-1.494 1.871-2.31 4.306-2.04 6.703.059.526.178 1.03.35 1.53l-.07.177c-.295.742-.981 2.465-.743 2.975.068.147.209.246.361.295.064.02.127.03.193.038.2-.033.387-.075.508-.255.132-.193.265-.66.379-1.057.053-.19.103-.364.146-.487a28.1 28.1 0 0 1 .483-1.243l.001-.005.06-.145c2.964.01 6.13-.919 8.275-3.035 2.399-2.367 3.003-6.183 3.008-9.413 0-.256-.018-.558-.204-.753-.115-.12-.288-.156-.448-.152-.077.001-.154.01-.231.018zm-7.495-9.368c.115-.007.23-.013.345-.012 1.408.01 2.818.64 3.807 1.632 1.347 1.35 1.623 2.785 1.626 4.619l-5.16-.003-5.805.008c-.044-1.576.21-3.016 1.244-4.26.994-1.197 2.412-1.846 3.943-1.983z" fill="#030A06"/><path d="m21.404 14.555-.06-.004c-3.046.417-6.697 1.887-8.604 4.388-1.27 1.667-1.742 3.403-1.694 5.475a19.828 19.828 0 0 1 5.808-6.435c.073-.05.15-.107.228-.164.295-.217.622-.457.946-.552.23-.067.376-.019.576.097.143.162.264.34.24.568-.026.248-.276.432-.46.568-.192.14-.386.274-.58.408-.302.208-.603.416-.89.646-1.863 1.487-3.667 3.49-4.79 5.603 2.41-.048 5.055-.91 6.758-2.667 1.838-1.897 2.532-5.233 2.55-7.823.001-.04 0-.045-.012-.07a.925.925 0 0 1-.016-.038zm.45-1.39.017-.002c.078-.008.155-.017.232-.018.16-.004.333.032.447.152.185.195.203.497.203.752-.005 3.229-.61 7.045-3.008 9.412-2.144 2.116-5.31 3.044-8.275 3.035l-.059.145v.005a28.1 28.1 0 0 0-.484 1.244 9.777 9.777 0 0 0-.147.488c-.115.398-.248.864-.378 1.057-.122.18-.308.222-.51.255a1.038 1.038 0 0 1-.19-.038.586.586 0 0 1-.363-.295c-.24-.51.447-2.233.742-2.975l.07-.177a7.128 7.128 0 0 1-.35-1.53c-.27-2.397.546-4.832 2.04-6.703 2.323-2.913 6.416-4.391 10.011-4.807z" fill="#030A06"/><path d="m21.87 13.163-.017.002c-3.595.416-7.688 1.894-10.011 4.807-1.494 1.871-2.31 4.306-2.04 6.703.059.526.178 1.03.35 1.53l-.07.177c-.295.742-.98 2.465-.742 2.975.068.147.21.246.361.295.064.02.127.03.193.038.201-.033.387-.075.509-.255.13-.193.263-.659.377-1.057.053-.19.103-.364.147-.487.147-.418.315-.83.482-1.243l.001-.005.06-.145c2.965.01 6.13-.919 8.275-3.035 2.399-2.367 3.003-6.183 3.008-9.413 0-.256-.017-.558-.204-.753-.115-.12-.288-.156-.448-.152-.077.001-.154.01-.231.018zm-.525 1.388.06.005.006.016.01.024c.011.024.013.029.013.069-.02 2.59-.713 5.926-2.551 7.823-1.703 1.757-4.347 2.62-6.759 2.667 1.124-2.112 2.929-4.116 4.79-5.603.288-.23.59-.438.89-.646.195-.134.39-.268.58-.408.185-.136.435-.32.461-.568.024-.228-.097-.406-.24-.569-.2-.117-.347-.165-.576-.098-.324.095-.651.335-.946.552-.079.058-.155.113-.228.164a19.83 19.83 0 0 0-5.808 6.435c-.048-2.072.423-3.808 1.694-5.475 1.908-2.501 5.558-3.971 8.605-4.387z" fill="#030A06"/><path d="M68.16 21.942a4.614 4.614 0 1 0-9.221.326 4.614 4.614 0 0 0 9.22-.326zm-4.612-3.063c.742.029 1.345.207 1.91.709.676.596 1.052 1.459 1.101 2.352.049.895-.233 1.802-.842 2.468-.556.609-1.25.881-2.063.922-.742-.008-1.354-.123-1.94-.61-.684-.569-1.07-1.41-1.143-2.29-.075-.913.164-1.858.77-2.558.602-.695 1.313-.934 2.206-.996z" fill="#030A06"/><path d="M55.338 21.56a4.61 4.61 0 1 0-9.157 1.097 4.61 4.61 0 0 0 9.158-1.097zm-4.989-2.644c.738-.06 1.407.017 2.031.446.701.482 1.142 1.226 1.288 2.057.165.943.01 1.952-.558 2.738-.497.69-1.118 1.03-1.946 1.163-.756.04-1.423-.007-2.06-.457a3.12 3.12 0 0 1-1.283-2.053c-.153-.914.032-1.966.577-2.727.48-.668 1.15-1.04 1.952-1.167z" fill="#030A06"/><path d="M77.832 17.489a4.358 4.358 0 0 0-3.005 1.626c-.833 1.051-1.119 2.385-.954 3.705a4.37 4.37 0 0 0 1.646 2.936c1.088.846 2.468 1.06 3.813.877.778-.107 1.947-.48 2.445-1.127a.84.84 0 0 0 .178-.633.61.61 0 0 0-.226-.414c-.153-.115-.356-.13-.537-.094-.252.05-.477.205-.691.353l-.134.09c-.94.488-1.98.717-3.014.382a2.88 2.88 0 0 1-1.684-1.464c-.178-.355-.267-.732-.346-1.12h4.433c.184.001.382.008.585.014.526.017 1.089.035 1.553-.048a.695.695 0 0 0 .354-.188c.217-.212.256-.513.25-.803-.026-1.11-.547-2.206-1.355-2.957-.933-.868-2.058-1.194-3.312-1.137zm.137 1.386a2.754 2.754 0 0 1 1.905.483c.663.47 1.01 1.139 1.15 1.926-.562.007-1.124.005-1.687.003l-.843-.002-3.117.004c.142-.48.308-.915.615-1.317.494-.647 1.178-.994 1.976-1.1z" fill="#030A06"/><path d="M53.145 14.192c1.664-.04 3.336-.003 5.001-.006.949-.001 2.16-.078 3.08.017a.637.637 0 0 1 .38.155c.16.14.266.352.272.565.005.194-.114.415-.253.545a.68.68 0 0 1-.374.16c-.382.063-.805.026-1.194.026l-2.066-.004v7.667c.002.646.084 2.055-.013 2.604a.953.953 0 0 1-.212.478.67.67 0 0 1-.494.217c-.197.005-.39-.039-.534-.183-.168-.169-.23-.417-.25-.648-.04-.426-.004-.876 0-1.303.008-.632.002-1.265.002-1.897l.005-6.934c-.687.002-3.065.112-3.552-.11a.63.63 0 0 1-.353-.39.72.72 0 0 1 .062-.587c.115-.211.27-.302.495-.37z" fill="#030A06"/><path d="M42.262 17.495a5.713 5.713 0 0 1 1.822.165c.633.17 1.603.543 1.93 1.145.09.165.137.363.074.546-.065.188-.243.33-.421.404-.522.213-1.174-.504-1.664-.69-.797-.3-1.756-.283-2.532.079-.712.333-1.224.963-1.49 1.694-.307.85-.333 1.958.058 2.785.362.767 1.03 1.304 1.82 1.583.906.32 1.849.15 2.695-.256.262-.143.5-.332.799-.394a.552.552 0 0 1 .438.076.806.806 0 0 1 .314.53.67.67 0 0 1-.165.495c-.496.614-1.598.922-2.347 1.014-1.301.16-2.657-.1-3.698-.93a4.543 4.543 0 0 1-1.724-3.135 4.71 4.71 0 0 1 1.007-3.432 4.53 4.53 0 0 1 3.085-1.678z" fill="#030A06"/><path d="m70.052 15.167.078-.004c.23-.007.462.055.625.225.39.406.235 1.776.23 2.336.53.003 1.818-.161 2.215.192a.64.64 0 0 1 .203.494c0 .184-.047.36-.183.489-.371.35-1.71.212-2.236.209.005 1.125-.147 4.595.2 5.45.56 1.38 1.777.166 2.47.493a.67.67 0 0 1 .325.37c.077.22.008.415-.082.616l-.046.05c-.42.436-1.206.541-1.785.55-.67.01-1.304-.105-1.8-.6-.358-.36-.58-.852-.69-1.342-.168-.756-.098-1.594-.098-2.365l.001-3.223a81.43 81.43 0 0 1-1.22-.01 1.328 1.328 0 0 1-.191-.138.793.793 0 0 1-.24-.574.614.614 0 0 1 .182-.477c.329-.303 1.051-.194 1.47-.187-.002-.586-.13-1.637.09-2.153.1-.229.26-.312.48-.403z" fill="#030A06"/><path fill-rule="evenodd" clip-rule="evenodd" d="M37.78 14.947c-.702-.069-4.132-.044-5.322-.027-.22.003-.422.018-.6.031-.152.013-.286.023-.396.023 0 0-.474.11-.628.324-.1.14-.134.317-.158.484-.127.887-.202 1.791-.276 2.693-.039.474-.078.947-.124 1.417l-.452 4.556c-.012.121-.033.288-.056.476-.077.61-.183 1.456-.114 1.792.038.186.137.34.302.438.162.096.347.15.532.182h.001c.382-.001.96.005 1.604.011 1.337.014 4.737.031 5.528-.003a1.54 1.54 0 0 0 .473-.076c.2-.076.364-.22.442-.421a.798.798 0 0 0-.028-.624.626.626 0 0 0-.42-.367h-6.833c.114-1.006.216-2.014.306-3.022l.08-.819.009-.08.207.003c.695.01 4.082.035 4.514-.03.159-.023.306-.063.422-.18a.738.738 0 0 0 .2-.57.734.734 0 0 0-.224-.492.615.615 0 0 0-.322-.147c-.404-.06-3.416-.043-4.176-.033-.204.002-.373.005-.483.005l.347-4.087h3.688c.188 0 .384.006.583.012.481.016.98.032 1.428-.038a.7.7 0 0 0 .41-.194.753.753 0 0 0 .209-.556.73.73 0 0 0-.676-.675z" fill="#030A06"/></svg>