<svg width="108" height="46" viewBox="0 0 108 46" fill="none" xmlns="http://www.w3.org/2000/svg"><path d="M19.084 3.355c-.203 0-.417 0-.618.025-2.333.194-4.477 1.185-6.004 2.991-1.661 1.966-2.063 4.036-2.044 6.538L5.973 12.9c-.2 0-.405-.005-.614-.01-.58-.017-1.183-.033-1.726.066-.328.06-.614.22-.844.46-.404.42-.413.95-.387 1.493.041.856.115 1.714.188 2.571.041.467.081.934.116 1.4l.738 9.532.359 4.604c.017.227.032.457.046.687.05.824.1 1.66.318 2.448a7.388 7.388 0 0 0 5.313 5.18c.997.243 2.155.215 3.242.19.324-.008.641-.015.946-.015l5.983-.002 5.227.002c.285 0 .58.007.877.014.965.022 1.971.046 2.873-.164 1.27-.296 2.554-.992 3.48-1.91.862-.856 1.551-1.998 1.852-3.178.23-.902.288-1.892.344-2.853.018-.31.036-.616.06-.916l.49-6.314.612-7.753c.03-.383.068-.77.106-1.157.083-.84.167-1.688.165-2.519-.002-.51-.11-.987-.476-1.367-.252-.261-.664-.389-1.013-.446-.52-.085-1.094-.07-1.648-.055-.205.004-.407.01-.604.01-1.398-.003-2.796.002-4.194.015h-.06c.033-2.678-.564-4.977-2.49-6.936a8.584 8.584 0 0 0-6.14-2.625h-.03zm8.472 15.28.076.005.006.015.002.006c.003.01.007.016.01.022l.002.008c.014.03.017.036.016.087-.024 3.285-.903 7.514-3.235 9.92-2.159 2.228-5.511 3.32-8.569 3.381 1.424-2.678 3.713-5.218 6.073-7.105.365-.291.747-.555 1.13-.818.246-.17.492-.34.734-.517.236-.173.552-.406.586-.72.03-.29-.124-.515-.305-.722-.253-.147-.439-.208-.729-.123-.41.12-.825.425-1.2.7-.098.073-.194.143-.287.208a25.143 25.143 0 0 0-7.365 8.16c-.061-2.627.537-4.828 2.148-6.942 2.419-3.172 7.047-5.036 10.91-5.562zM4.061 14.547h30.03a81.98 81.98 0 0 0-.245 3.05 147.46 147.46 0 0 1-.121 1.701l-.81 10.133-.301 3.733a61.93 61.93 0 0 0-.038.489c-.049.644-.098 1.294-.222 1.925-.128.647-.375 1.21-.711 1.774a6.26 6.26 0 0 1-.42.567c-.871 1.04-2.3 1.815-3.658 1.918-.739.056-1.5.042-2.252.028-.326-.006-.651-.012-.973-.012l-6.23-.001h-4.958c-.24.001-.483.006-.728.011-.752.017-1.521.033-2.244-.092a5.355 5.355 0 0 1-2.564-1.209 5.6 5.6 0 0 1-1.8-2.832c-.202-.732-.252-1.513-.302-2.28a44.674 44.674 0 0 0-.04-.574l-.294-3.799L4.06 14.547zm24.163 2.33-.022.002c-4.557.527-9.747 2.402-12.693 6.094-1.894 2.374-2.928 5.46-2.587 8.5a9.04 9.04 0 0 0 .444 1.94l-.089.225c-.374.94-1.243 3.125-.94 3.772a.743.743 0 0 0 .458.372c.08.025.16.04.243.05.255-.043.491-.096.645-.324.166-.246.335-.836.48-1.34.068-.241.132-.462.187-.618.187-.532.4-1.055.612-1.577l.001-.007.076-.183c3.759.01 7.773-1.166 10.492-3.849 3.041-3 3.808-7.84 3.813-11.935.002-.324-.02-.707-.257-.954-.145-.152-.363-.198-.566-.193a3.523 3.523 0 0 0-.294.022zM18.72 4.997a6.37 6.37 0 0 1 .436-.016c1.785.012 3.573.81 4.828 2.07 1.708 1.712 2.058 3.53 2.061 5.856l-6.541-.004-7.361.01c-.056-2 .265-3.825 1.577-5.403 1.26-1.516 3.058-2.339 4.999-2.512z" fill="#030A06"/><path d="m27.632 18.64-.076-.004c-3.863.526-8.491 2.39-10.91 5.562-1.611 2.114-2.21 4.315-2.148 6.942a25.142 25.142 0 0 1 7.365-8.159c.092-.063.189-.134.288-.207.375-.275.79-.58 1.201-.7.291-.085.477-.024.73.123.182.207.336.432.306.721-.034.315-.35.548-.585.72a30.65 30.65 0 0 1-.733.518c-.383.263-.765.527-1.13.818-2.36 1.887-4.649 4.427-6.073 7.105 3.058-.06 6.41-1.153 8.57-3.381 2.33-2.406 3.21-6.635 3.234-9.92 0-.05-.002-.056-.016-.087l-.012-.029a1.36 1.36 0 0 1-.008-.02zm.57-1.762.021-.003c.098-.01.196-.02.294-.022.203-.005.421.04.566.193.237.247.259.63.258.953-.005 4.094-.77 8.933-3.812 11.934-2.719 2.683-6.733 3.86-10.492 3.849l-.075.183-.001.007a35.577 35.577 0 0 0-.613 1.577c-.055.156-.119.377-.188.617-.145.505-.314 1.095-.48 1.341-.153.229-.389.281-.644.323a1.31 1.31 0 0 1-.243-.048.742.742 0 0 1-.459-.373c-.302-.648.567-2.833.942-3.773l.088-.225a9.04 9.04 0 0 1-.444-1.94c-.341-3.04.693-6.126 2.587-8.5 2.946-3.692 8.136-5.567 12.694-6.094z" fill="#030A06"/><path d="m28.223 16.875-.022.003c-4.557.527-9.747 2.402-12.693 6.094-1.894 2.374-2.929 5.46-2.587 8.5a9.04 9.04 0 0 0 .444 1.94l-.089.225c-.374.94-1.243 3.125-.94 3.772a.743.743 0 0 0 .458.372c.08.025.16.04.243.05.255-.043.491-.096.645-.324.166-.246.335-.836.48-1.34.068-.24.132-.462.186-.618.188-.532.4-1.055.613-1.577l.001-.007.076-.183c3.759.01 7.773-1.166 10.492-3.849 3.041-3 3.807-7.84 3.813-11.935.002-.324-.02-.707-.257-.954-.145-.152-.363-.198-.566-.193a3.523 3.523 0 0 0-.294.022zm-.667 1.76.076.005a.767.767 0 0 0 .008.021l.012.03c.014.03.017.036.016.087-.024 3.285-.903 7.514-3.235 9.92-2.159 2.228-5.511 3.32-8.569 3.381 1.424-2.678 3.713-5.218 6.073-7.105.365-.291.747-.555 1.13-.818.246-.17.492-.34.734-.517.236-.173.552-.406.586-.72.03-.29-.124-.515-.305-.722-.253-.147-.439-.208-.729-.123-.41.12-.825.425-1.2.7-.098.073-.195.143-.287.208a25.143 25.143 0 0 0-7.365 8.16c-.061-2.627.537-4.828 2.148-6.942 2.418-3.172 7.047-5.036 10.91-5.562z" fill="#030A06"/><path d="M86.916 28.007a5.85 5.85 0 1 0-11.693.413 5.85 5.85 0 0 0 11.693-.413zm-5.849-3.885c.942.039 1.706.265 2.424.9.856.758 1.333 1.852 1.396 2.985.063 1.135-.294 2.284-1.066 3.13-.706.771-1.586 1.117-2.617 1.168-.94-.01-1.717-.156-2.46-.773-.866-.721-1.356-1.79-1.448-2.903-.096-1.16.207-2.357.976-3.246.764-.88 1.665-1.184 2.798-1.262z" fill="#030A06"/><path d="M70.657 27.523a5.847 5.847 0 1 0-11.61 1.39 5.847 5.847 0 0 0 11.61-1.39zm-6.324-3.353c.936-.076 1.785.022 2.576.566.887.61 1.445 1.554 1.63 2.608.21 1.197.013 2.476-.707 3.473-.63.873-1.418 1.307-2.467 1.474-.958.05-1.805-.008-2.612-.58a3.956 3.956 0 0 1-1.627-2.602c-.196-1.16.039-2.494.73-3.458.61-.848 1.458-1.318 2.476-1.48z" fill="#030A06"/><path d="M99.18 22.36a.998.998 0 0 0-.086.007c-1.473.174-2.799.886-3.725 2.055-1.057 1.334-1.42 3.026-1.211 4.7a5.54 5.54 0 0 0 2.087 3.721c1.38 1.073 3.13 1.345 4.835 1.112.987-.136 2.47-.608 3.1-1.43.178-.23.267-.511.226-.802a.776.776 0 0 0-.286-.525c-.194-.144-.452-.162-.68-.117-.32.063-.606.26-.878.447-.057.04-.113.079-.17.116-1.19.619-2.511.91-3.821.485a3.652 3.652 0 0 1-2.135-1.856c-.226-.45-.339-.929-.439-1.42h5.62c.233 0 .484.01.742.017.667.02 1.38.043 1.968-.062a.884.884 0 0 0 .45-.238c.276-.27.325-.65.317-1.018-.032-1.408-.693-2.797-1.717-3.75-1.183-1.1-2.61-1.514-4.2-1.442zm.173 1.76c.853-.1 1.714.117 2.417.612.84.597 1.28 1.445 1.458 2.443-.712.008-1.426.007-2.14.005-.355-.002-.712-.002-1.068-.002l-3.953.005c.181-.608.391-1.16.78-1.67.627-.82 1.494-1.26 2.506-1.394z" fill="#030A06"/><path d="M67.877 18.18c2.11-.05 4.23-.003 6.342-.007 1.201-.002 2.737-.1 3.904.02.188.02.338.073.48.198.204.179.339.446.346.718.006.245-.144.526-.32.69-.136.125-.297.175-.475.204-.486.078-1.022.032-1.515.032l-2.62-.005v9.72c.003.819.107 2.605-.016 3.302a1.208 1.208 0 0 1-.27.605.85.85 0 0 1-.625.276c-.252.005-.498-.05-.68-.233-.213-.214-.291-.53-.318-.822-.048-.54-.004-1.11.003-1.652.009-.802.002-1.605 0-2.407l.007-8.792c-.87.004-3.886.143-4.504-.137a.797.797 0 0 1-.448-.494.912.912 0 0 1 .078-.745c.148-.267.345-.382.63-.47z" fill="#030A06"/><path d="M54.078 22.368c.784-.045 1.55.006 2.31.21.804.214 2.032.688 2.448 1.45.114.21.174.462.093.694-.083.237-.308.418-.535.51-.66.271-1.488-.64-2.11-.873-1.01-.382-2.226-.361-3.21.098-.903.422-1.553 1.22-1.89 2.149-.39 1.076-.422 2.48.073 3.53.46.973 1.306 1.653 2.309 2.007 1.147.406 2.343.19 3.416-.324.332-.18.634-.42 1.013-.498a.7.7 0 0 1 .556.096c.205.142.37.424.398.673.026.234-.065.448-.21.627-.627.778-2.024 1.17-2.975 1.286-1.65.202-3.368-.129-4.688-1.181a5.76 5.76 0 0 1-2.185-3.974 5.973 5.973 0 0 1 1.275-4.351 5.743 5.743 0 0 1 3.911-2.13z" fill="#030A06"/><path d="m89.315 19.416.098-.004c.293-.01.587.07.793.285.493.515.298 2.251.292 2.962.671.003 2.305-.206 2.809.242.182.162.256.387.257.627 0 .231-.06.454-.233.618-.469.446-2.167.27-2.833.266.006 1.428-.187 5.829.253 6.912.711 1.751 2.253.21 3.132.625a.85.85 0 0 1 .412.472c.1.277.011.525-.103.78-.018.022-.038.043-.058.064-.53.554-1.529.687-2.262.697-.85.012-1.654-.132-2.283-.761-.453-.455-.735-1.08-.874-1.7-.213-.96-.125-2.022-.124-3v-4.086c-.515 0-1.03-.004-1.547-.012a1.693 1.693 0 0 1-.243-.176c-.204-.183-.296-.457-.304-.727a.778.778 0 0 1 .232-.604c.417-.386 1.333-.247 1.863-.238 0-.744-.163-2.076.117-2.73.125-.29.329-.396.608-.512z" fill="#030A06"/><path fill-rule="evenodd" clip-rule="evenodd" d="M48.395 19.138c-.89-.088-5.24-.057-6.748-.035-.278.005-.535.023-.76.04-.193.014-.363.027-.503.027 0 0-.6.14-.795.411-.128.179-.172.403-.202.615-.161 1.124-.256 2.27-.35 3.413-.05.601-.099 1.202-.158 1.797l-.572 5.776c-.015.156-.042.366-.072.606-.097.773-.23 1.845-.144 2.272a.806.806 0 0 0 .382.555c.207.121.44.19.675.23h.001c.486 0 1.218.007 2.036.015 1.695.018 6.006.04 7.009-.004.2-.009.411-.026.6-.097a.948.948 0 0 0 .56-.534c.102-.256.08-.543-.035-.791a.794.794 0 0 0-.53-.466h-8.665c.144-1.276.274-2.553.388-3.832l.102-1.04.01-.102.263.003c.882.014 5.177.045 5.725-.037.2-.03.388-.08.535-.229a.935.935 0 0 0 .254-.724.93.93 0 0 0-.285-.624.78.78 0 0 0-.409-.187c-.51-.075-4.33-.055-5.294-.042-.259.003-.473.006-.612.006l.44-5.183h4.675c.238 0 .487.008.739.016.61.02 1.243.04 1.81-.048.202-.03.375-.1.521-.247a.955.955 0 0 0 .264-.705.925.925 0 0 0-.855-.855z" fill="#030A06"/></svg>